<?xml version="1.0" standalone="no"?><!DOCTYPE svg PUBLIC "-//W3C//DTD SVG 1.1//EN" "http://www.w3.org/Graphics/SVG/1.1/DTD/svg11.dtd"><svg t="1765430521485" class="icon" viewBox="0 0 1024 1024" version="1.1" xmlns="http://www.w3.org/2000/svg" p-id="9191" xmlns:xlink="http://www.w3.org/1999/xlink" width="64" height="64"><path d="M128 320V192c0-70.4 144-128 320-128s320 57.6 320 128v128c0 70.4-144 128-320 128S128 390.4 128 320z m320 320c105.6 0 198.4-19.2 256-51.2V512h64v-128c0 70.4-144 128-320 128S128 454.4 128 384v128c0 70.4 144 128 320 128z m128 54.4c-38.4 6.4-83.2 9.6-128 9.6-176 0-320-57.6-320-128v128c0 70.4 144 128 320 128 44.8 0 89.6-3.2 128-9.6v-128z" fill="#ffffff" p-id="9192"></path><path d="M1024 704h-128v-128h-128v128h-128v128h128v128h128v-128h128z" fill="#ffffff" p-id="9193"></path></svg>