<?xml version="1.0" standalone="no"?><!DOCTYPE svg PUBLIC "-//W3C//DTD SVG 1.1//EN" "http://www.w3.org/Graphics/SVG/1.1/DTD/svg11.dtd"><svg t="1765422336886" class="icon" viewBox="0 0 1024 1024" version="1.1" xmlns="http://www.w3.org/2000/svg" p-id="5496" xmlns:xlink="http://www.w3.org/1999/xlink" width="64" height="64"><path d="M128 320V192c0-70.4 144-128 320-128s320 57.6 320 128v128c0 70.4-144 128-320 128S128 390.4 128 320z m640 256z m-320 64c176 0 320-57.6 320-128v-128c0 70.4-144 128-320 128S128 454.4 128 384v128c0 70.4 144 128 320 128z m38.4 192l153.6-153.6c-54.4 16-118.4 25.6-192 25.6-176 0-320-57.6-320-128v128c0 70.4 144 128 320 128h38.4z" fill="#ffffff" p-id="5497" data-spm-anchor-id="a313x.search_index.0.i0.2d8b3a8105SgtZ" class="selected"></path><path d="M928 736l-256 256-128-128 256-256 128 128z m32-32l54.4-54.4c12.8-12.8 12.8-32 0-41.6L928 521.6c-12.8-12.8-32-12.8-41.6 0L832 576l128 128z m-448 192v128h128l-128-128z" fill="#ffffff" p-id="5498" data-spm-anchor-id="a313x.search_index.0.i1.2d8b3a8105SgtZ" class="selected"></path></svg>