<?xml version="1.0" standalone="no"?><!DOCTYPE svg PUBLIC "-//W3C//DTD SVG 1.1//EN" "http://www.w3.org/Graphics/SVG/1.1/DTD/svg11.dtd"><svg t="1765768842520" class="icon" viewBox="0 0 1024 1024" version="1.1" xmlns="http://www.w3.org/2000/svg" p-id="25511" xmlns:xlink="http://www.w3.org/1999/xlink" width="64" height="64"><path d="M512 384C306.346667 384 85.333333 330.666667 85.333333 213.333333s221.013333-170.666667 426.666667-170.666666 426.666667 53.333333 426.666667 170.666666-221.013333 170.666667-426.666667 170.666667z m0-256C288 128 170.666667 191.573333 170.666667 213.333333s117.333333 85.333333 341.333333 85.333334 341.333333-63.573333 341.333333-85.333334-117.333333-85.333333-341.333333-85.333333zM512 682.666667c-205.653333 0-426.666667-53.333333-426.666667-170.666667a42.666667 42.666667 0 0 1 85.333334 0c0 20.053333 106.24 85.333333 341.333333 85.333333s341.333333-65.28 341.333333-85.333333a42.666667 42.666667 0 0 1 85.333334 0c0 117.333333-221.013333 170.666667-426.666667 170.666667z" p-id="25512" fill="#ffffff"></path><path d="M512 981.333333c-205.653333 0-426.666667-53.333333-426.666667-170.666666V213.333333a42.666667 42.666667 0 0 1 85.333334 0v597.333334c0 20.053333 106.24 85.333333 341.333333 85.333333s341.333333-65.28 341.333333-85.333333V213.333333a42.666667 42.666667 0 0 1 85.333334 0v597.333334c0 117.333333-221.013333 170.666667-426.666667 170.666666z" p-id="25513" fill="#ffffff"></path></svg>