<?xml version="1.0" standalone="no"?><!DOCTYPE svg PUBLIC "-//W3C//DTD SVG 1.1//EN" "http://www.w3.org/Graphics/SVG/1.1/DTD/svg11.dtd"><svg t="1765761881528" class="icon" viewBox="0 0 1024 1024" version="1.1" xmlns="http://www.w3.org/2000/svg" p-id="7358" xmlns:xlink="http://www.w3.org/1999/xlink" width="64" height="64"><path d="M147.2 992c-63.488 0-115.2-49.1008-115.2-109.5168s51.6608-109.5168 115.2-109.5168c63.5392 0 115.2512 49.1008 115.2512 109.5168S210.7392 992 147.2 992zM147.2 811.4176c-42.3424 0-76.8 31.8976-76.8 71.1168s34.4576 71.1168 76.8 71.1168c42.3936 0 76.8512-31.8976 76.8512-71.1168S189.5424 811.4176 147.2 811.4176z" fill="#ffffff" p-id="7359"></path><path d="M511.2832 991.9488c-63.488 0-115.2-49.1008-115.2-109.5168s51.6608-109.5168 115.2-109.5168c63.5392 0 115.2512 49.1008 115.2512 109.5168S574.8736 991.9488 511.2832 991.9488zM511.2832 811.3664c-42.3424 0-76.8 31.8976-76.8 71.1168s34.4576 71.1168 76.8 71.1168c42.3936 0 76.8512-31.8976 76.8512-71.1168S553.6768 811.3664 511.2832 811.3664z" fill="#ffffff" p-id="7360"></path><path d="M876.7488 990.464c-63.5392 0-115.2512-49.1008-115.2512-109.5168s51.712-109.568 115.2512-109.568 115.2512 49.152 115.2512 109.568S940.288 990.464 876.7488 990.464zM876.7488 809.7792c-42.3936 0-76.8512 31.8976-76.8512 71.168 0 39.2192 34.4576 71.1168 76.8512 71.1168s76.8512-31.8976 76.8512-71.1168C953.6 841.6768 919.1424 809.7792 876.7488 809.7792z" fill="#ffffff" p-id="7361"></path><path d="M509.696 250.9824c-63.5392 0-115.2512-49.1008-115.2512-109.5168s51.712-109.5168 115.2512-109.5168c63.5392 0 115.2 49.1008 115.2 109.5168S573.184 250.9824 509.696 250.9824zM509.696 70.4c-42.3936 0-76.8512 31.8976-76.8512 71.1168s34.4576 71.1168 76.8512 71.1168c42.3424 0 76.8-31.8976 76.8-71.1168S551.9872 70.4 509.696 70.4z" fill="#ffffff" p-id="7362"></path><path d="M494.4384 222.4128l38.4 0 0 559.2576-38.4 0 0-559.2576Z" fill="#ffffff" p-id="7363"></path><path d="M504.901596 468.899543l26.28864 27.98976-335.391964 315.00801-26.28864-27.98976 335.391964-315.00801Z" fill="#ffffff" p-id="7364"></path><path d="M522.386616 471.1311l333.968486 314.11561-26.30784 27.97056-333.968486-314.11561 26.30784-27.97056Z" fill="#ffffff" p-id="7365"></path></svg>