<?xml version="1.0" standalone="no"?><!DOCTYPE svg PUBLIC "-//W3C//DTD SVG 1.1//EN" "http://www.w3.org/Graphics/SVG/1.1/DTD/svg11.dtd"><svg t="1765430752355" class="icon" viewBox="0 0 1024 1024" version="1.1" xmlns="http://www.w3.org/2000/svg" p-id="9563" xmlns:xlink="http://www.w3.org/1999/xlink" width="64" height="64"><path d="M64 320V192c0-70.4 144-128 320-128s320 57.6 320 128v128c0 70.4-144 128-320 128S64 390.4 64 320z m320 320v-22.4l80-12.8-48-67.2 32-28.8c-22.4 3.2-41.6 3.2-64 3.2-176 0-320-57.6-320-128v128c0 70.4 144 128 320 128z m80 163.2l-80-12.8V704c-176 0-320-57.6-320-128v128c0 70.4 144 128 320 128 22.4 0 41.6 0 60.8-3.2l19.2-25.6z" fill="#ffffff" p-id="9564"></path><path d="M960 736v-64l-70.4-12.8c-6.4-19.2-12.8-41.6-22.4-57.6l41.6-57.6-44.8-44.8-57.6 41.6c-16-9.6-38.4-19.2-57.6-22.4L736 448h-64l-12.8 70.4c-19.2 6.4-41.6 12.8-57.6 22.4L544 499.2 499.2 544l41.6 57.6c-9.6 16-19.2 38.4-22.4 57.6L448 672v64l70.4 12.8c6.4 19.2 12.8 41.6 22.4 57.6L499.2 864l44.8 44.8 57.6-41.6c16 9.6 38.4 19.2 57.6 22.4L672 960h64l12.8-70.4c19.2-6.4 41.6-12.8 57.6-22.4l57.6 41.6 44.8-44.8-41.6-57.6c9.6-16 19.2-38.4 22.4-57.6L960 736z m-256 32c-35.2 0-64-28.8-64-64s28.8-64 64-64 64 28.8 64 64-28.8 64-64 64z" fill="#ffffff" p-id="9565"></path></svg>